<mxfile host="app.diagrams.net" agent="Mozilla/5.0 (Windows NT 10.0; Win64; x64) AppleWebKit/537.36 (KHTML, like Gecko) Chrome/134.0.0.0 Safari/537.36 Edg/134.0.0.0" version="26.1.1">
  <diagram name="PÃ¡gina-1" id="jrB5XqBsHzrZD0Ilpb3P">
    <mxGraphModel dx="1112" dy="469" grid="1" gridSize="10" guides="1" tooltips="1" connect="1" arrows="1" fold="1" page="1" pageScale="1" pageWidth="827" pageHeight="1169" math="0" shadow="0">
      <root>
        <mxCell id="0" />
        <mxCell id="1" parent="0" />
        <mxCell id="CXL5KGSdbKZm3m7loOPv-3" value="" style="edgeStyle=orthogonalEdgeStyle;rounded=0;orthogonalLoop=1;jettySize=auto;html=1;" edge="1" parent="1" source="CXL5KGSdbKZm3m7loOPv-1" target="CXL5KGSdbKZm3m7loOPv-2">
          <mxGeometry relative="1" as="geometry" />
        </mxCell>
        <mxCell id="CXL5KGSdbKZm3m7loOPv-1" value="inicio" style="ellipse;whiteSpace=wrap;html=1;" vertex="1" parent="1">
          <mxGeometry x="350" y="40" width="120" height="80" as="geometry" />
        </mxCell>
        <mxCell id="CXL5KGSdbKZm3m7loOPv-5" value="" style="edgeStyle=orthogonalEdgeStyle;rounded=0;orthogonalLoop=1;jettySize=auto;html=1;" edge="1" parent="1" source="CXL5KGSdbKZm3m7loOPv-2" target="CXL5KGSdbKZm3m7loOPv-4">
          <mxGeometry relative="1" as="geometry" />
        </mxCell>
        <mxCell id="CXL5KGSdbKZm3m7loOPv-2" value="num1, num2" style="shape=parallelogram;perimeter=parallelogramPerimeter;whiteSpace=wrap;html=1;fixedSize=1;" vertex="1" parent="1">
          <mxGeometry x="350" y="200" width="120" height="60" as="geometry" />
        </mxCell>
        <mxCell id="CXL5KGSdbKZm3m7loOPv-9" value="" style="edgeStyle=orthogonalEdgeStyle;rounded=0;orthogonalLoop=1;jettySize=auto;html=1;" edge="1" parent="1" source="CXL5KGSdbKZm3m7loOPv-4" target="CXL5KGSdbKZm3m7loOPv-8">
          <mxGeometry relative="1" as="geometry" />
        </mxCell>
        <mxCell id="CXL5KGSdbKZm3m7loOPv-4" value="media=(num1 + num2)/2" style="whiteSpace=wrap;html=1;" vertex="1" parent="1">
          <mxGeometry x="330" y="320" width="160" height="60" as="geometry" />
        </mxCell>
        <mxCell id="CXL5KGSdbKZm3m7loOPv-11" value="" style="edgeStyle=orthogonalEdgeStyle;rounded=0;orthogonalLoop=1;jettySize=auto;html=1;" edge="1" parent="1" source="CXL5KGSdbKZm3m7loOPv-8" target="CXL5KGSdbKZm3m7loOPv-10">
          <mxGeometry relative="1" as="geometry" />
        </mxCell>
        <mxCell id="CXL5KGSdbKZm3m7loOPv-8" value="media" style="shape=document;whiteSpace=wrap;html=1;boundedLbl=1;" vertex="1" parent="1">
          <mxGeometry x="350" y="450" width="120" height="80" as="geometry" />
        </mxCell>
        <mxCell id="CXL5KGSdbKZm3m7loOPv-10" value="fim" style="ellipse;whiteSpace=wrap;html=1;" vertex="1" parent="1">
          <mxGeometry x="370" y="585" width="80" height="80" as="geometry" />
        </mxCell>
      </root>
    </mxGraphModel>
  </diagram>
</mxfile>
